REM DIRINDEX 1\6,1\2\7,1\2\8,1\2\9,1\3\10,1\3\11,1\4\12,1\4\13,1\4\14,1\5\15,1\5\16,1\5\17
REM DIRNAME folder01,folder02,folder03,folder04,folder05,folder06,folder07,folder08,folder09,folder10,folder11,folder12,folder13,folder14,folder15,folder16,folder17
TITLE ""
FILE "P2Q_t_0565-0582.mp3" MP3
  TRACK 01 AUDIO
    TITLE "10:cjc040_2782"
    INDEX 01 00:00:00
  TRACK 02 AUDIO
    TITLE "0:"
    INDEX 01 00:01:07
  TRACK 03 AUDIO
    TITLE "11:cjc040_2783"
    INDEX 01 00:01:69
  TRACK 04 AUDIO
    TITLE "0:"
    INDEX 01 00:04:09
  TRACK 05 AUDIO
    TITLE "10:cjc040_2784"
    INDEX 01 00:04:62
  TRACK 06 AUDIO
    TITLE "0:"
    INDEX 01 00:06:02
  TRACK 07 AUDIO
    TITLE "11:cjc040_2785"
    INDEX 01 00:06:53
  TRACK 08 AUDIO
    TITLE "0:"
    INDEX 01 00:07:56
  TRACK 09 AUDIO
    TITLE "10:cjc040_2786"
    INDEX 01 00:08:38
  TRACK 10 AUDIO
    TITLE "0:"
    INDEX 01 00:09:71
  TRACK 11 AUDIO
    TITLE "11:cjc040_2787"
    INDEX 01 00:10:45
  TRACK 12 AUDIO
    TITLE "0:"
    INDEX 01 00:13:02
  TRACK 13 AUDIO
    TITLE "10:cjc040_2788"
    INDEX 01 00:13:57
  TRACK 14 AUDIO
    TITLE "0:"
    INDEX 01 00:14:60
  TRACK 15 AUDIO
    TITLE "11:cjc040_2789"
    INDEX 01 00:15:38
  TRACK 16 AUDIO
    TITLE "0:"
    INDEX 01 00:16:51
  TRACK 17 AUDIO
    TITLE "10:cjc040_2790"
    INDEX 01 00:17:29
  TRACK 18 AUDIO
    TITLE "0:"
    INDEX 01 00:18:64
  TRACK 19 AUDIO
    TITLE "11:cjc040_2791"
    INDEX 01 00:19:50
  TRACK 20 AUDIO
    TITLE "0:"
    INDEX 01 00:20:67
  TRACK 21 AUDIO
    TITLE "10:cjc040_2792"
    INDEX 01 00:21:47
  TRACK 22 AUDIO
    TITLE "0:"
    INDEX 01 00:22:64
  TRACK 23 AUDIO
    TITLE "11:cjc040_2793"
    INDEX 01 00:23:50
  TRACK 24 AUDIO
    TITLE "0:"
    INDEX 01 00:25:46
  TRACK 25 AUDIO
    TITLE "10:cjc040_2794"
    INDEX 01 00:26:32
  TRACK 26 AUDIO
    TITLE "0:"
    INDEX 01 00:27:45
  TRACK 27 AUDIO
    TITLE "11:cjc040_2795"
    INDEX 01 00:28:25
  TRACK 28 AUDIO
    TITLE "0:"
    INDEX 01 00:31:59
  TRACK 29 AUDIO
    TITLE "10:cjc040_2796"
    INDEX 01 00:32:39
  TRACK 30 AUDIO
    TITLE "0:"
    INDEX 01 00:33:42
  TRACK 31 AUDIO
    TITLE "11:cjc040_2797"
    INDEX 01 00:34:20
  TRACK 32 AUDIO
    TITLE "0:"
    INDEX 01 00:35:23
  TRACK 33 AUDIO
    TITLE "10:cjc040_2798"
    INDEX 01 00:36:05
  TRACK 34 AUDIO
    TITLE "0:"
    INDEX 01 00:37:24
  TRACK 35 AUDIO
    TITLE "11:cjc040_2799"
    INDEX 01 00:37:73
  TRACK 36 AUDIO
    TITLE "0:"
    INDEX 01 00:41:42
  TRACK 37 AUDIO
    TITLE "10:cjc040_2800"
    INDEX 01 00:42:19
  TRACK 38 AUDIO
    TITLE "0:"
    INDEX 01 00:43:39
  TRACK 39 AUDIO
    TITLE "11:cjc040_2801"
    INDEX 01 00:44:18
  TRACK 40 AUDIO
    TITLE "0:"
    INDEX 01 00:46:35
  TRACK 41 AUDIO
    TITLE "10:cjc040_2802"
    INDEX 01 00:47:17
  TRACK 42 AUDIO
    TITLE "0:"
    INDEX 01 00:48:34
  TRACK 43 AUDIO
    TITLE "11:cjc040_2803"
    INDEX 01 00:49:14
  TRACK 44 AUDIO
    TITLE "0:"
    INDEX 01 00:52:73
  TRACK 45 AUDIO
    TITLE "10:cjc040_2804"
    INDEX 01 00:53:58
  TRACK 46 AUDIO
    TITLE "0:"
    INDEX 01 00:54:68
  TRACK 47 AUDIO
    TITLE "11:cjc040_2805"
    INDEX 01 00:55:48
  TRACK 48 AUDIO
    TITLE "0:"
    INDEX 01 00:57:58
  TRACK 49 AUDIO
    TITLE "10:cjc040_2806"
    INDEX 01 00:58:42
  TRACK 50 AUDIO
    TITLE "0:"
    INDEX 01 00:59:47
  TRACK 51 AUDIO
    TITLE "11:cjc040_2807"
    INDEX 01 01:00:27
  TRACK 52 AUDIO
    TITLE "0:"
    INDEX 01 01:01:23
  TRACK 53 AUDIO
    TITLE "10:cjc040_2808"
    INDEX 01 01:02:05
  TRACK 54 AUDIO
    TITLE "0:"
    INDEX 01 01:03:04
  TRACK 55 AUDIO
    TITLE "11:cjc040_2809"
    INDEX 01 01:03:61
  TRACK 56 AUDIO
    TITLE "0:"
    INDEX 01 01:07:04
  TRACK 57 AUDIO
    TITLE "10:cjc040_2810"
    INDEX 01 01:07:64
  TRACK 58 AUDIO
    TITLE "0:"
    INDEX 01 01:09:05
  TRACK 59 AUDIO
    TITLE "11:cjc040_2811"
    INDEX 01 01:09:61
  TRACK 60 AUDIO
    TITLE "0:"
    INDEX 01 01:11:02
  TRACK 61 AUDIO
    TITLE "10:cjc040_2812"
    INDEX 01 01:11:49
  TRACK 62 AUDIO
    TITLE "0:"
    INDEX 01 01:12:56
  TRACK 63 AUDIO
    TITLE "11:cjc040_2813"
    INDEX 01 01:13:38
  TRACK 64 AUDIO
    TITLE "0:"
    INDEX 01 01:15:44
  TRACK 65 AUDIO
    TITLE "10:cjc040_2814"
    INDEX 01 01:16:28
  TRACK 66 AUDIO
    TITLE "0:"
    INDEX 01 01:17:55
  TRACK 67 AUDIO
    TITLE "11:cjc040_2815"
    INDEX 01 01:18:35
  TRACK 68 AUDIO
    TITLE "0:"
    INDEX 01 01:20:61
  TRACK 69 AUDIO
    TITLE "10:cjc040_2816"
    INDEX 01 01:21:45
  TRACK 70 AUDIO
    TITLE "0:"
    INDEX 01 01:22:64
  TRACK 71 AUDIO
    TITLE "11:cjc040_2817"
    INDEX 01 01:23:44
  TRACK 72 AUDIO
    TITLE "0:"
    INDEX 01 01:25:57
